# xmcd
#
# Track frame offsets: 
#        150
#        16853
#        32609
#        48958
#        66352
#        85541
#        99220
#        109890
#        126489
#        136705
#        154085
#        167891
#
# Disc length: 2450 seconds
#
# Revision: 0
# Processed by: cddbd v1.5.2PL0 Copyright (c) Steve Scherf et al.
# Submitted via: ExactAudioCopy v0.95b4
#
DISCID=9009900c
DTITLE=Paolo Bonfanti - On the Outside
DYEAR=1999
DGENRE=Blues
TTITLE0=1. On The Outside
TTITLE1=2. Sometimes
TTITLE2=3. NorthWestern Hopeless Blues n.2
TTITLE3=4. NorthWestern (slight return)
TTITLE4=5. Move Slow
TTITLE5=6. Homebreaker Blues
TTITLE6=7. Crazier Then You
TTITLE7=8. Beetween Me And You
TTITLE8=9. Ferrari's Walk
TTITLE9=10. Another Song
TTITLE10=11. Valley Jam
TTITLE11=12. Times Ain't Changed At All
EXTD=
EXTT0=
EXTT1=
EXTT2=
EXTT3=
EXTT4=
EXTT5=
EXTT6=
EXTT7=
EXTT8=
EXTT9=
EXTT10=
EXTT11=
PLAYORDER=
